<svg width="60" height="60" viewBox="0 0 60 60" fill="none" xmlns="http://www.w3.org/2000/svg">
<g clip-path="url(#clip0_635_957)">
<path d="M30 0.742598C13.4269 0.742598 0 14.1807 0 30.7426C0 44.0045 8.595 55.2451 20.5069 59.2107C22.0125 59.4938 22.5562 58.5657 22.5562 57.7632C22.5562 57.0507 22.5394 55.1663 22.5281 52.6651C14.1788 54.4726 12.42 48.632 12.42 48.632C11.0531 45.1745 9.08062 44.2463 9.08062 44.2463C6.36562 42.392 9.29625 42.4313 9.29625 42.4313C12.3038 42.6357 13.8863 45.5157 13.8863 45.5157C16.5619 50.1057 20.9063 48.7782 22.6256 48.0057C22.8881 46.0726 23.67 44.7432 24.5212 44.0026C17.8612 43.2507 10.8581 40.6726 10.8581 29.177C10.8581 25.8938 12.0206 23.2201 13.9425 21.1201C13.6106 20.3682 12.5944 17.312 14.2069 13.1795C14.2069 13.1795 16.7175 12.3788 22.4569 16.2563C24.9017 15.5914 27.4233 15.2504 29.9569 15.242C32.5069 15.2588 35.055 15.5926 37.4569 16.2563C43.1625 12.3788 45.6712 13.1795 45.6712 13.1795C47.2819 17.312 46.2656 20.3663 45.9731 21.1201C47.8762 23.2201 49.0387 25.8957 49.0387 29.177C49.0387 40.6988 42.0262 43.2395 35.3587 43.9726C36.4012 44.8707 37.3781 46.7176 37.3781 49.5207C37.3781 53.5332 37.3406 56.7657 37.3406 57.7426C37.3406 58.5226 37.8656 59.4601 39.4106 59.1582C51.4106 55.2338 59.9963 43.9838 59.9963 30.7407C59.9963 14.1788 46.5694 0.740723 29.9963 0.740723L30 0.742598Z" fill="url(#paint0_linear_635_957)"/>
</g>
<defs>
<linearGradient id="paint0_linear_635_957" x1="-2.84943" y1="29.6313" x2="62.5291" y2="29.6313" gradientUnits="userSpaceOnUse">
<stop stop-color="#7000FF"/>
<stop offset="0.63" stop-color="#0066FF"/>
<stop offset="1" stop-color="#0066FF"/>
</linearGradient>
<clipPath id="clip0_635_957">
<rect width="60" height="60" fill="white"/>
</clipPath>
</defs>
</svg>
