<svg width="409" height="109" viewBox="0 0 409 109" fill="none" xmlns="http://www.w3.org/2000/svg">
<path d="M11.2031 16.4844C13.875 17.1172 16.2656 17.6094 18.375 17.9609C20.5547 18.2422 22.3828 18.4531 23.8594 18.5938C25.6172 18.8047 27.1641 18.875 28.5 18.8047C30.1875 18.7344 32.2969 18.4883 34.8281 18.0664C37.3594 17.6445 40.0312 17.2227 42.8438 16.8008C45.6562 16.3789 48.4336 16.0273 51.1758 15.7461C53.918 15.4648 56.3086 15.4297 58.3477 15.6406C60.3867 15.8516 62.5312 16.3437 64.7812 17.1172C67.0312 17.8203 69.1406 18.8047 71.1094 20.0703C73.0781 21.2656 74.7656 22.7422 76.1719 24.5C77.6484 26.2578 78.5625 28.2969 78.9141 30.6172C79.2656 32.8672 79.0547 35.293 78.2812 37.8945C77.5078 40.4258 76.2773 42.9219 74.5898 45.3828C72.9023 47.7734 70.793 49.9883 68.2617 52.0273C65.7305 54.0664 62.918 55.7188 59.8242 56.9844C57.3633 57.8984 54.6914 58.6016 51.8086 59.0938C49.3477 59.5156 46.4648 59.7969 43.1602 59.9375C39.9258 60.0078 36.4805 59.6562 32.8242 58.8828C32.332 60.9219 32.0508 62.8203 31.9805 64.5781C31.9805 66.2656 32.0508 67.7773 32.1914 69.1133C32.4023 70.6602 32.6836 72.0664 33.0352 73.332C33.457 74.5977 33.9844 76.0742 34.6172 77.7617C35.1797 79.168 35.8125 80.8906 36.5156 82.9297C37.2891 84.8984 38.2031 87.1133 39.2578 89.5742C37.9922 89.5742 36.7617 89.6094 35.5664 89.6797C34.3711 89.6797 33.2812 89.7148 32.2969 89.7852C31.1719 89.8555 30.1172 89.9258 29.1328 89.9961C28.0078 90.0664 26.7422 90.207 25.3359 90.418C24.1406 90.5586 22.6289 90.7695 20.8008 91.0508C19.043 91.332 17.0391 91.6836 14.7891 92.1055C16.2656 89.9961 17.4258 88.0625 18.2695 86.3047C19.1836 84.4766 19.8516 82.8945 20.2734 81.5586C20.7656 80.0117 21.082 78.6055 21.2227 77.3398C21.293 76.2852 21.293 74.4219 21.2227 71.75C21.2227 69.0781 21.1875 65.9844 21.1172 62.4688C21.0469 58.9531 20.9414 55.2617 20.8008 51.3945C20.6602 47.5273 20.4844 43.9062 20.2734 40.5312C20.0625 37.0859 19.8164 34.1328 19.5352 31.6719C19.3242 29.2109 19.1133 27.5938 18.9023 26.8203C18.6211 25.9063 18.1289 24.9219 17.4258 23.8672C16.8633 22.9531 16.0547 21.8984 15 20.7031C14.0156 19.4375 12.75 18.0312 11.2031 16.4844ZM33.0352 37.2617C32.9648 37.9648 32.9297 38.7031 32.9297 39.4766C32.9297 40.9531 33.0352 42.8516 33.2461 45.1719C33.7383 46.3672 34.3359 47.3516 35.0391 48.125C35.8125 48.8984 36.6211 49.4961 37.4648 49.918C38.3789 50.3398 39.293 50.6211 40.207 50.7617C41.1211 50.9023 42.0352 50.9727 42.9492 50.9727C45.0586 50.9023 47.2734 50.4102 49.5938 49.4961C52.6875 48.1602 54.8672 46.2617 56.1328 43.8008C57.3984 41.3398 58.0664 38.8086 58.1367 36.207C58.207 33.6055 57.75 31.2148 56.7656 29.0352C55.8516 26.8555 54.7266 25.3789 53.3906 24.6055C52.2656 24.1133 50.8242 23.9023 49.0664 23.9727C47.5195 24.043 45.5859 24.4297 43.2656 25.1328C40.9453 25.8359 38.0977 27.1016 34.7227 28.9297C34.3711 30.1953 34.0898 31.3203 33.8789 32.3047C33.668 33.2891 33.4922 34.168 33.3516 34.9414C33.2109 35.7852 33.1055 36.5586 33.0352 37.2617ZM79.5469 44.8555L98.9531 45.0664C97.8281 49.3555 96.9844 53.0117 96.4219 56.0352C95.9297 59.0586 95.6133 61.5898 95.4727 63.6289C95.1914 65.9492 95.1211 67.918 95.2617 69.5352C95.4727 71.0117 95.8242 72.5938 96.3164 74.2812C96.7383 75.6875 97.3711 77.3047 98.2148 79.1328C99.0586 80.9609 100.184 82.7891 101.59 84.6172C100.746 84.3359 99.832 84.125 98.8477 83.9844C97.8633 83.8438 96.9492 83.7383 96.1055 83.668C95.1211 83.5977 94.1367 83.5977 93.1523 83.668C92.168 83.7383 91.0781 83.8438 89.8828 83.9844C88.8984 84.125 87.7031 84.3008 86.2969 84.5117C84.8906 84.7227 83.4141 85.0039 81.8672 85.3555C82.9219 82.1914 83.7305 79.4492 84.293 77.1289C84.9258 74.8086 85.3828 72.875 85.6641 71.3281C85.9453 69.5 86.1211 68.0234 86.1914 66.8984C86.1914 65.4922 86.1914 63.9102 86.1914 62.1523C86.1914 60.3242 86.1914 58.5664 86.1914 56.8789C86.1914 55.1914 86.1562 53.7148 86.0859 52.4492C86.0156 51.1133 85.875 50.2695 85.6641 49.918L84.6094 48.8633C84.1875 48.5117 83.5547 48.0195 82.7109 47.3867C81.9375 46.6836 80.8828 45.8398 79.5469 44.8555ZM87.0352 28.6133C88.5117 27.8398 89.9883 27.6289 91.4648 27.9805C93.0117 28.332 94.207 29 95.0508 29.9844C95.8945 30.9688 96.1758 32.1289 95.8945 33.4648C95.6836 34.8008 94.5586 36.1016 92.5195 37.3672C90.4805 38.5625 88.6875 38.9844 87.1406 38.6328C85.5938 38.2812 84.5039 37.543 83.8711 36.418C83.2383 35.293 83.1328 33.9922 83.5547 32.5156C83.9766 30.9688 85.1367 29.668 87.0352 28.6133ZM101.379 33.4648C103.418 33.4648 105.105 33.5 106.441 33.5703C107.777 33.5703 108.832 33.5703 109.605 33.5703H111.715H114.141C115.125 33.5703 116.426 33.5703 118.043 33.5703C119.73 33.5 121.91 33.3945 124.582 33.2539C123.316 33.5352 122.332 33.8516 121.629 34.2031C120.926 34.4844 120.398 34.8008 120.047 35.1523C119.625 35.5039 119.379 35.8906 119.309 36.3125C119.379 36.875 119.625 37.7539 120.047 38.9492C120.398 40.0039 120.996 41.4453 121.84 43.2734C122.754 45.1016 124.09 47.5625 125.848 50.6562C128.801 47.2812 131.051 44.6094 132.598 42.6406C134.145 40.6719 135.305 39.1602 136.078 38.1055C136.852 36.9102 137.309 36.1016 137.449 35.6797C137.379 35.3281 137.273 34.9766 137.133 34.625C136.922 34.0625 136.395 33.1836 135.551 31.9883C137.449 32.1289 139.102 32.2344 140.508 32.3047C141.914 32.3047 143.109 32.3398 144.094 32.4102C145.219 32.4805 146.133 32.5156 146.836 32.5156C147.609 32.5156 148.734 32.4805 150.211 32.4102C151.406 32.3398 153.023 32.2695 155.062 32.1992C157.172 32.0586 159.809 31.8477 162.973 31.5664C160.371 32.832 158.156 34.0625 156.328 35.2578C154.5 36.3828 152.988 37.4023 151.793 38.3164C150.387 39.3711 149.227 40.3555 148.312 41.2695C147.398 42.3242 146.273 43.625 144.938 45.1719C143.742 46.5781 142.266 48.3359 140.508 50.4453C138.82 52.4844 136.746 55.0508 134.285 58.1445C136.113 61.3086 137.836 64.0156 139.453 66.2656C141.141 68.5156 142.582 70.3789 143.777 71.8555C145.184 73.6133 146.484 75.0195 147.68 76.0742C148.875 77.1289 150.176 78.1836 151.582 79.2383C152.777 80.1523 154.148 81.1367 155.695 82.1914C157.312 83.1758 159.035 84.0547 160.863 84.8281C159.035 84.9688 157.242 85.0742 155.484 85.1445C153.797 85.1445 152.285 85.2148 150.949 85.3555C149.402 85.4961 147.926 85.6016 146.52 85.6719C145.113 85.8125 143.672 85.918 142.195 85.9883C140.93 86.0586 139.523 86.1289 137.977 86.1992C136.43 86.2695 134.848 86.3047 133.23 86.3047C133.863 85.6719 134.355 85.0742 134.707 84.5117C135.059 83.9492 135.34 83.457 135.551 83.0352C135.832 82.543 136.008 82.0859 136.078 81.6641C136.008 81.1016 135.656 80.1875 135.023 78.9219C134.461 77.7969 133.582 76.25 132.387 74.2812C131.191 72.2422 129.434 69.5 127.113 66.0547C125.496 67.7422 124.195 69.2188 123.211 70.4844C122.297 71.75 121.594 72.8047 121.102 73.6484C120.539 74.6328 120.152 75.4414 119.941 76.0742C119.801 76.707 119.801 77.4102 119.941 78.1836C120.082 78.8164 120.293 79.5898 120.574 80.5039C120.855 81.3477 121.348 82.2266 122.051 83.1406C118.535 83.3516 115.582 83.457 113.191 83.457H109.605C108.48 83.457 107.145 83.4219 105.598 83.3516C104.262 83.2812 102.609 83.2461 100.641 83.2461C98.6016 83.1758 96.2461 83.0703 93.5742 82.9297C94.3477 82.6484 95.1562 82.2969 96 81.875C96.8438 81.4531 97.582 81.0664 98.2148 80.7148C98.9883 80.293 99.7266 79.8359 100.43 79.3438C101.203 78.7109 102.434 77.5156 104.121 75.7578C105.527 74.2812 107.461 72.207 109.922 69.5352C112.383 66.793 115.582 63.1367 119.52 58.5664C117.199 54.3477 115.301 51.0078 113.824 48.5469C112.418 46.0156 111.328 44.0469 110.555 42.6406C109.641 41.0234 108.973 39.9336 108.551 39.3711C108.129 38.8086 107.566 38.1758 106.863 37.4727C105.738 36.3477 103.91 35.0117 101.379 33.4648ZM179.637 75.0195C181.605 75.0195 183.434 74.8086 185.121 74.3867C186.527 74.0352 187.863 73.4727 189.129 72.6992C190.465 71.8555 191.344 70.625 191.766 69.0078C193.172 69.2891 194.367 69.5352 195.352 69.7461C196.336 69.8867 197.18 70.0273 197.883 70.168C198.656 70.3789 199.324 70.5195 199.887 70.5898C200.449 70.7305 201.117 70.8711 201.891 71.0117C202.594 71.1523 203.438 71.3281 204.422 71.5391C205.477 71.6797 206.707 71.8906 208.113 72.1719C207.059 72.0312 205.969 72.1367 204.844 72.4883C203.789 72.8398 202.77 73.2266 201.785 73.6484C200.66 74.1406 199.605 74.7383 198.621 75.4414C197.988 75.8633 197.25 76.4961 196.406 77.3398C195.633 78.1836 194.508 78.9922 193.031 79.7656C191.555 80.5391 189.586 81.207 187.125 81.7695C184.734 82.2617 181.641 82.4375 177.844 82.2969C173.273 82.1562 169.441 81.3477 166.348 79.8711C163.254 78.3242 160.758 76.4609 158.859 74.2812C156.961 72.0312 155.59 69.6055 154.746 67.0039C153.902 64.4023 153.445 61.9766 153.375 59.7266C153.305 57.4766 153.973 55.1211 155.379 52.6602C156.785 50.1992 158.754 47.9492 161.285 45.9102C163.887 43.8711 167.016 42.2188 170.672 40.9531C174.328 39.6172 178.336 38.9492 182.695 38.9492C185.227 38.9492 187.547 39.2656 189.656 39.8984C191.836 40.4609 193.805 41.2344 195.562 42.2188C197.391 43.2031 198.973 44.3281 200.309 45.5938C201.645 46.7891 202.77 48.0195 203.684 49.2852C204.598 50.6211 205.371 52.0273 206.004 53.5039C206.566 54.7695 207.023 56.2109 207.375 57.8281C207.727 59.4453 207.832 61.0977 207.691 62.7852C202.348 62.9258 198.023 63.0312 194.719 63.1016C191.484 63.1719 188.953 63.207 187.125 63.207H182.379H178.793C177.527 63.207 175.875 63.2422 173.836 63.3125C171.797 63.3828 169.301 63.4883 166.348 63.6289C166.699 66.4414 167.578 68.6211 168.984 70.168C170.461 71.6445 172.008 72.7695 173.625 73.543C175.453 74.3867 177.457 74.8789 179.637 75.0195ZM170.145 56.0352C172.395 56.1758 174.258 56.2812 175.734 56.3516C177.281 56.4219 178.547 56.4922 179.531 56.5625C180.586 56.6328 181.43 56.668 182.062 56.668H184.699C186.457 56.668 189.727 56.5625 194.508 56.3516C194.297 53.2578 193.629 50.9023 192.504 49.2852C191.449 47.668 190.324 46.4727 189.129 45.6992C187.723 44.8555 186.176 44.3633 184.488 44.2227C179.918 44.293 176.508 45.2422 174.258 47.0703C172.078 48.8984 170.707 51.8867 170.145 56.0352ZM214.336 94.9531C215.039 93.8984 215.602 92.9141 216.023 92C216.445 91.0859 216.797 90.3125 217.078 89.6797C217.359 88.9062 217.57 88.2031 217.711 87.5703C217.781 87.1484 217.816 85.918 217.816 83.8789C217.816 81.8398 217.746 79.2734 217.605 76.1797C217.535 73.0859 217.43 69.6055 217.289 65.7383C217.219 61.8711 217.078 57.9336 216.867 53.9258C216.727 49.918 216.551 46.0156 216.34 42.2188C216.199 38.4219 216.059 35.0117 215.918 31.9883C215.777 28.8945 215.637 26.3633 215.496 24.3945C215.355 22.4258 215.25 21.3008 215.18 21.0195C215.039 20.5977 214.793 20.1758 214.441 19.7539C213.738 18.9102 212.543 18.1016 210.855 17.3281C214.441 16.4141 217.184 15.6758 219.082 15.1133C220.207 14.832 221.191 14.5508 222.035 14.2695C222.809 13.9883 223.582 13.707 224.355 13.4258C224.988 13.1445 225.691 12.8281 226.465 12.4766C227.238 12.0547 227.941 11.5977 228.574 11.1055C228.223 13.1445 227.941 15.1133 227.73 17.0117C227.52 18.9102 227.344 20.668 227.203 22.2852C227.062 24.1133 226.992 25.8711 226.992 27.5586C226.641 31.0039 226.43 34.7656 226.359 38.8438C226.359 42.8516 226.395 46.9297 226.465 51.0781C226.535 55.2266 226.676 59.2695 226.887 63.207C227.098 67.1445 227.309 70.7305 227.52 73.9648C227.801 77.1289 228.047 79.8359 228.258 82.0859C228.539 84.2656 228.75 85.6719 228.891 86.3047C229.172 87.3594 229.453 88.3789 229.734 89.3633C230.016 90.207 230.332 91.0859 230.684 92C231.035 92.9844 231.457 93.7578 231.949 94.3203H221.719C220.805 94.3203 219.926 94.3555 219.082 94.4258C218.309 94.4961 217.5 94.5664 216.656 94.6367C215.812 94.707 215.039 94.8125 214.336 94.9531ZM251.25 20.5977C254.766 20.8086 257.719 20.9844 260.109 21.125C262.57 21.1953 264.609 21.2656 266.227 21.3359C268.055 21.4062 269.602 21.4062 270.867 21.3359C272.133 21.2656 273.855 21.0898 276.035 20.8086C277.863 20.5977 280.289 20.2812 283.312 19.8594C286.406 19.3672 290.238 18.7344 294.809 17.9609C293.191 19.5781 291.926 21.0547 291.012 22.3906C290.168 23.6562 289.5 24.7461 289.008 25.6602C288.445 26.7852 288.059 27.7344 287.848 28.5078C287.707 29.2109 287.848 30.9688 288.27 33.7812C288.691 36.5938 289.289 39.9336 290.062 43.8008C290.836 47.5977 291.68 51.6758 292.594 56.0352C293.508 60.3242 294.422 64.3672 295.336 68.1641C296.25 71.8906 297.059 75.0898 297.762 77.7617C298.535 80.3633 299.098 81.9102 299.449 82.4023C300.504 83.8789 301.172 84.8633 301.453 85.3555C301.734 85.7773 302.227 86.1641 302.93 86.5156C303.211 86.6562 303.668 86.8672 304.301 87.1484C304.863 87.4297 305.602 87.7812 306.516 88.2031C307.5 88.625 308.73 89.1172 310.207 89.6797C307.465 89.8203 305.109 89.9258 303.141 89.9961C301.172 89.9961 299.555 90.0312 298.289 90.1016C296.812 90.1719 295.547 90.2422 294.492 90.3125C293.438 90.3125 292.172 90.3828 290.695 90.5234C289.43 90.6641 287.777 90.8047 285.738 90.9453C283.77 91.0859 281.449 91.2266 278.777 91.3672C280.184 90.3828 281.309 89.5039 282.152 88.7305C283.066 87.8867 283.77 87.1836 284.262 86.6211C284.824 85.918 285.211 85.2852 285.422 84.7227C285.562 84.0898 285.668 83.1406 285.738 81.875C285.809 80.75 285.809 79.2734 285.738 77.4453C285.668 75.5469 285.492 73.0859 285.211 70.0625L257.473 72.9102C256.77 74.1055 256.242 75.1602 255.891 76.0742C255.539 76.918 255.293 77.6562 255.152 78.2891C254.941 79.0625 254.871 79.6953 254.941 80.1875C255.082 80.75 255.328 81.418 255.68 82.1914C256.031 82.8945 256.523 83.7383 257.156 84.7227C257.859 85.6367 258.879 86.7266 260.215 87.9922C258.457 87.9219 256.664 87.8867 254.836 87.8867C253.008 87.8867 251.32 87.9219 249.773 87.9922C247.945 88.0625 246.152 88.1328 244.395 88.2031C242.637 88.2734 240.633 88.3789 238.383 88.5195C236.484 88.6602 234.27 88.8359 231.738 89.0469C229.137 89.1875 226.359 89.3984 223.406 89.6797C225.234 88.8359 226.781 87.9922 228.047 87.1484C229.312 86.2344 230.367 85.3906 231.211 84.6172C232.195 83.7734 233.039 82.9648 233.742 82.1914C234.234 81.4883 235.219 79.8711 236.695 77.3398C238.172 74.7383 239.824 71.6797 241.652 68.1641C243.551 64.6484 245.52 60.8867 247.559 56.8789C249.668 52.8711 251.566 49.1094 253.254 45.5938C254.941 42.0078 256.312 38.9141 257.367 36.3125C258.422 33.7109 258.949 32.0234 258.949 31.25C258.809 30.3359 258.457 29.3164 257.895 28.1914C257.402 27.207 256.629 26.082 255.574 24.8164C254.59 23.5508 253.148 22.1445 251.25 20.5977ZM283.945 62.2578C283.523 59.7969 283.137 57.6875 282.785 55.9297C282.434 54.1016 282.152 52.5898 281.941 51.3945C281.66 49.9883 281.449 48.7578 281.309 47.7031C281.098 46.7188 280.852 45.4531 280.57 43.9062C280.289 42.5703 279.938 40.918 279.516 38.9492C279.164 36.9102 278.707 34.4844 278.145 31.6719C274.137 39.6875 271.008 45.9102 268.758 50.3398C266.578 54.6992 264.996 57.8984 264.012 59.9375C262.816 62.3281 262.148 63.7344 262.008 64.1562L283.945 62.2578ZM305.25 41.4805C306.586 41.5508 307.781 41.5859 308.836 41.5859C309.961 41.5156 310.91 41.4453 311.684 41.375C312.598 41.3047 313.406 41.2344 314.109 41.1641C315.164 41.0234 316.254 40.8477 317.379 40.6367C318.363 40.4961 319.383 40.3203 320.438 40.1094C321.562 39.8281 322.652 39.5117 323.707 39.1602C323.285 40.2148 322.934 41.1289 322.652 41.9023C322.371 42.6758 322.16 43.3438 322.02 43.9062C321.809 44.5391 321.703 45.0664 321.703 45.4883C321.633 45.9805 321.598 46.5781 321.598 47.2812C321.527 48.4766 321.527 50.4102 321.598 53.082C325.254 49.918 328.312 47.457 330.773 45.6992C333.305 43.9414 335.309 42.5703 336.785 41.5859C338.543 40.4609 339.914 39.7227 340.898 39.3711C343.5 38.9492 345.785 39.5469 347.754 41.1641C348.598 41.8672 349.406 42.8164 350.18 44.0117C350.953 45.1367 351.621 46.6484 352.184 48.5469C352.746 50.4453 353.168 52.7305 353.449 55.4023C353.73 58.0039 353.766 61.1328 353.555 64.7891C352.078 64.9297 350.742 65.0703 349.547 65.2109C348.422 65.3516 347.473 65.457 346.699 65.5273C345.785 65.668 344.941 65.7383 344.168 65.7383L341.32 66.0547C340.336 66.1953 339.105 66.3359 337.629 66.4766C336.223 66.5469 334.5 66.6875 332.461 66.8984C335.414 64.5078 337.312 62.4336 338.156 60.6758C339.07 58.8477 339.457 57.3359 339.316 56.1406C339.176 54.8047 338.543 53.6445 337.418 52.6602C336.082 51.8867 334.641 51.6055 333.094 51.8164C331.758 51.957 330.211 52.5547 328.453 53.6094C326.695 54.6641 324.832 56.6328 322.863 59.5156C323.004 64.0156 323.145 67.7422 323.285 70.6953C323.496 73.6484 323.672 76.0391 323.812 77.8672C324.023 79.9766 324.199 81.6289 324.34 82.8242C324.551 83.8789 324.973 85.0039 325.605 86.1992C326.098 87.1836 326.801 88.2734 327.715 89.4688C328.629 90.6641 329.824 91.8594 331.301 93.0547C328.207 92.9141 325.676 92.9141 323.707 93.0547C322.512 93.125 321.457 93.1953 320.543 93.2656C319.559 93.4062 318.504 93.5469 317.379 93.6875C316.395 93.8281 315.234 93.9688 313.898 94.1094C312.633 94.3203 311.227 94.5312 309.68 94.7422C310.242 93.9688 310.699 93.0547 311.051 92C311.402 91.0156 311.684 90.0664 311.895 89.1523C312.176 88.0977 312.387 87.0078 312.527 85.8828C312.598 84.8984 312.633 83.4219 312.633 81.4531C312.703 79.4844 312.668 77.2695 312.527 74.8086C312.457 72.2773 312.352 69.6758 312.211 67.0039C312.07 64.2617 311.895 61.6953 311.684 59.3047C311.473 56.9141 311.227 54.8398 310.945 53.082C310.734 51.2539 310.488 49.9883 310.207 49.2852C309.855 48.4414 309.434 47.5977 308.941 46.7539C308.52 45.9805 307.992 45.1719 307.359 44.3281C306.727 43.4141 306.023 42.4648 305.25 41.4805ZM356.719 25.5547C358.828 25.7656 360.586 25.9414 361.992 26.082C363.469 26.2227 364.664 26.3281 365.578 26.3984C366.633 26.4687 367.477 26.5039 368.109 26.5039C368.742 26.5742 369.586 26.5742 370.641 26.5039C371.555 26.4336 372.75 26.3633 374.227 26.293C375.703 26.1523 377.566 25.9414 379.816 25.6602C379.324 26.3633 378.938 26.9961 378.656 27.5586C378.375 28.0508 378.129 28.5078 377.918 28.9297L377.285 30.1953C377.145 30.6172 377.004 31.0391 376.863 31.4609C376.723 31.8125 376.582 32.2344 376.441 32.7266C376.371 33.2188 376.301 33.7461 376.23 34.3086H392.473L390.996 42.8516L376.125 42.0078C375.773 45.5938 375.527 48.3711 375.387 50.3398C375.246 52.3086 375.105 53.75 374.965 54.6641L374.754 56.5625C374.543 59.2344 374.332 62.1523 374.121 65.3164C373.91 68.4102 373.84 71.293 373.91 73.9648C373.98 76.6367 374.227 78.8867 374.648 80.7148C375.07 82.4727 375.809 83.3516 376.863 83.3516C377.918 83.3516 378.902 83.0703 379.816 82.5078C380.73 81.9453 381.504 81.2773 382.137 80.5039C382.84 79.7305 383.367 78.957 383.719 78.1836C384.07 77.3398 384.246 76.707 384.246 76.2852C384.246 75.8633 384.141 75.3711 383.93 74.8086C383.578 73.7539 382.945 72.418 382.031 70.8008C384.07 71.293 385.863 71.7852 387.41 72.2773C388.184 72.5586 388.887 72.8398 389.52 73.1211C390.223 73.4023 391.031 73.7188 391.945 74.0703C392.719 74.4219 393.703 74.8438 394.898 75.3359C396.094 75.8281 397.5 76.4258 399.117 77.1289C397.57 77.4102 396.445 77.8672 395.742 78.5C395.32 78.7812 395.004 79.0977 394.793 79.4492C394.301 80.2227 393.738 81.2773 393.105 82.6133C392.473 83.8789 391.523 85.1445 390.258 86.4102C388.992 87.6758 387.27 88.8008 385.09 89.7852C382.98 90.7695 380.133 91.332 376.547 91.4727C372.82 91.6133 369.973 90.9805 368.004 89.5742C366.105 88.168 364.699 86.5508 363.785 84.7227C362.941 82.8242 362.449 80.9609 362.309 79.1328C362.168 77.3047 362.062 76.0742 361.992 75.4414C361.922 74.8086 361.922 73.2266 361.992 70.6953C362.062 68.1641 362.168 65.3867 362.309 62.3633C362.449 59.2695 362.59 56.3164 362.73 53.5039C362.871 50.6211 362.941 48.5117 362.941 47.1758C362.941 46.4727 362.977 45.7344 363.047 44.9609C363.047 44.3281 363.047 43.6602 363.047 42.957C363.117 42.1836 363.152 41.4453 363.152 40.7422L347.859 40.6367L347.227 34.625L362.625 35.0469C362.484 34.2734 362.309 33.5703 362.098 32.9375C361.957 32.2344 361.816 31.6719 361.676 31.25C361.465 30.7578 361.254 30.3359 361.043 29.9844C360.762 29.6328 360.445 29.2461 360.094 28.8242C359.742 28.4727 359.285 28.0156 358.723 27.4531C358.16 26.8906 357.492 26.2578 356.719 25.5547Z" fill="url(#paint0_linear_626_953)"/>
<defs>
<linearGradient id="paint0_linear_626_953" x1="-3" y1="54" x2="410" y2="54" gradientUnits="userSpaceOnUse">
<stop stop-color="#0066FF"/>
<stop offset="0.428679" stop-color="#0066FF"/>
<stop offset="1" stop-color="#7000FF"/>
</linearGradient>
</defs>
</svg>
